<svg xmlns="http://www.w3.org/2000/svg" width="12" height="12.794" viewBox="0 0 12 12.794">
  <path fill-rule="evenodd" d="M7.377 6.682L4.433 2.75s-.517-.885.074-1.397C5.514.479 6.766 1.187 7.92 0c.384.626.209 1.93-.51 2.249-.719.318-1.588.348-1.588.348l3.028 5.45-.084-.073c.097.234.15.486.15.748 0 1.231-1.152 2.229-2.572 2.229-1.42 0-2.572-.998-2.572-2.229 0-1.23 1.152-2.228 2.572-2.228.368 0 .718.067 1.034.188zM3.43 1.372v.77a5.314 5.314 0 1 0 5.486.207v-.8a6 6 0 1 1-5.486-.177z" opacity=".3"/>
</svg>

